# xmcd CD database file
#
# Track frame offsets:
#	150
#	21235
#	41005
#	62505
#	83600
#	103375
#
# Disc length: 1664 seconds
#
# Revision: 14
# Processed by: cddbd v1.5.2PL0 Copyright (c) Steve Scherf et al.
# Submitted via: CDex 1.70beta3
#
DISCID=46067e06
DTITLE=水樹奈々 - innocent starter
DYEAR=2004
DGENRE=Japanese Pop
TTITLE0=innocent starter
TTITLE1=Open Your Heart
TTITLE2=それでも君を想い出すから-again-
TTITLE3=innocent starter (Off Vocal Version)
TTITLE4=Open Your Heart (Off Vocal Version)
TTITLE5=それでも君を想い出すから-again- (Off Vocal Version)
EXTD=YEAR: 2004
EXTT0=
EXTT1=
EXTT2=
EXTT3=
EXTT4=
EXTT5=
PLAYORDER=
